<mxfile host="65bd71144e">
    <diagram id="-kbrYRwOdKLfnElHOkNr" name="Page-1">
        <mxGraphModel dx="920" dy="685" grid="1" gridSize="10" guides="1" tooltips="1" connect="1" arrows="1" fold="1" page="1" pageScale="1" pageWidth="850" pageHeight="1100" math="0" shadow="0">
            <root>
                <mxCell id="0"/>
                <mxCell id="1" parent="0"/>
                <mxCell id="8" value="" style="group" vertex="1" connectable="0" parent="1">
                    <mxGeometry x="198" y="221" width="130" height="70" as="geometry"/>
                </mxCell>
                <mxCell id="4" value="" style="rounded=0;whiteSpace=wrap;html=1;" vertex="1" parent="8">
                    <mxGeometry y="10" width="120" height="60" as="geometry"/>
                </mxCell>
                <mxCell id="3" value="Selenium Hub" style="text;html=1;strokeColor=none;fillColor=none;align=left;verticalAlign=middle;whiteSpace=wrap;rounded=0;" vertex="1" parent="8">
                    <mxGeometry x="8" y="1" width="90" height="40" as="geometry"/>
                </mxCell>
                <mxCell id="7" value="" style="rounded=0;whiteSpace=wrap;html=1;fillColor=#FF0000;strokeColor=#FF3333;" vertex="1" parent="8">
                    <mxGeometry x="110" y="42" width="20" height="10" as="geometry"/>
                </mxCell>
                <mxCell id="14" value="port 4445" style="text;html=1;strokeColor=none;fillColor=none;align=left;verticalAlign=middle;whiteSpace=wrap;rounded=0;" vertex="1" parent="8">
                    <mxGeometry x="48" y="36" width="72" height="22" as="geometry"/>
                </mxCell>
                <mxCell id="15" value="" style="group" vertex="1" connectable="0" parent="1">
                    <mxGeometry x="500" y="120" width="130" height="70" as="geometry"/>
                </mxCell>
                <mxCell id="16" value="" style="rounded=0;whiteSpace=wrap;html=1;" vertex="1" parent="15">
                    <mxGeometry y="10" width="120" height="60" as="geometry"/>
                </mxCell>
                <mxCell id="17" value="Selenium node" style="text;html=1;strokeColor=none;fillColor=none;align=left;verticalAlign=middle;whiteSpace=wrap;rounded=0;" vertex="1" parent="15">
                    <mxGeometry x="8" y="1" width="90" height="40" as="geometry"/>
                </mxCell>
                <mxCell id="18" value="" style="rounded=0;whiteSpace=wrap;html=1;fillColor=#FF0000;strokeColor=#FF3333;" vertex="1" parent="15">
                    <mxGeometry x="-10" y="42" width="20" height="10" as="geometry"/>
                </mxCell>
                <mxCell id="19" value="port&amp;nbsp; xxxx" style="text;html=1;strokeColor=none;fillColor=none;align=left;verticalAlign=middle;whiteSpace=wrap;rounded=0;" vertex="1" parent="15">
                    <mxGeometry x="19" y="36" width="71" height="22" as="geometry"/>
                </mxCell>
            </root>
        </mxGraphModel>
    </diagram>
</mxfile>